<svg xmlns="http://www.w3.org/2000/svg" viewBox="0 0 1440 320">
  <path fill="#323436" fill-opacity="1" d="M0,320L34.3,304C68.6,288,137,256,206,229.3C274.3,203,343,181,411,170.7C480,160,549,160,617,165.3C685.7,171,754,181,823,192C891.4,203,960,213,1029,224C1097.1,235,1166,245,1234,261.3C1302.9,277,1371,299,1406,309.3L1440,320L1440,320L1405.7,320C1371.4,320,1303,320,1234,320C1165.7,320,1097,320,1029,320C960,320,891,320,823,320C754.3,320,686,320,617,320C548.6,320,480,320,411,320C342.9,320,274,320,206,320C137.1,320,69,320,34,320L0,320Z"></path>
</svg>